<?xml version="1.0" encoding="UTF-8" standalone="no"?>
<!DOCTYPE svg PUBLIC "-//W3C//DTD SVG 1.1//EN" "http://www.w3.org/Graphics/SVG/1.1/DTD/svg11.dtd">
<svg width="100%" height="100%" viewBox="0 0 2481 858" version="1.1" xmlns="http://www.w3.org/2000/svg" xmlns:xlink="http://www.w3.org/1999/xlink" xml:space="preserve" xmlns:serif="http://www.serif.com/" style="fill-rule:evenodd;clip-rule:evenodd;stroke-linejoin:round;stroke-miterlimit:2;">
    <g transform="matrix(1.053375,0,0,1.053375,-66.590311,-804.75416)">
        <path d="M2048.208,1269.142C2048.208,1269.142 2003.826,1332.358 1996.388,1336.679C1993.418,1338.405 1993.252,1338.425 1993.348,1341.469C1993.615,1349.946 2131.389,1313.414 2185.033,1402.396C2197.8,1423.572 2200.248,1449.169 2201.34,1457.88C2202.732,1528.142 2154.195,1557.079 2119.216,1556.378C2049.982,1554.99 2063.694,1499.562 2086.844,1462.379C2106.518,1430.779 2092.042,1346.383 1993.1,1370.737C1928.602,1386.612 1920.856,1477.711 1960.161,1521.119C2023.587,1591.166 2150.938,1577.904 2172.53,1576.221C2223.015,1572.284 2280.857,1551.341 2314.811,1513.871C2370.027,1452.935 2358.282,1353.981 2305.719,1314.272C2210.658,1242.459 2048.208,1269.142 2048.208,1269.142Z"/>
    </g>
    <g transform="matrix(1.053375,0,0,1.053375,-82.01688,-1475.068637)">
        <path d="M1315.272,1578.3C1425.147,1572.006 1431.949,1430.945 1338.906,1403.777C1255.972,1379.561 1186.534,1488.441 1254.924,1553.608C1278.549,1576.118 1307.105,1577.739 1315.272,1578.3Z"/>
    </g>
    <g transform="matrix(1.053375,0,0,1.053375,-66.590311,-804.75416)">
        <path d="M263.21,1342.921C161.004,1344.595 124.427,1341.665 69.439,1343.77C68.589,1343.803 58.413,1344.193 66.268,1334.485C84.459,1312.005 87.698,1288.54 88.059,1131.159C88.611,890.204 84.831,890.131 79.616,872.572C70.673,842.461 54.219,835.479 69.392,835.104C74.627,834.975 109.095,834.124 134.5,828.954C233.77,808.754 232.409,794.009 238.759,799.494C241.924,802.227 240.187,802.787 240.039,812.04C239.964,816.705 240.191,988.173 239.893,992.294C238.88,1006.297 235.202,1009.736 241.779,1009.651C243.801,1009.625 244.563,1010.48 245.889,1007.526C248.268,1002.228 261.123,973.598 296.116,952.65C418.718,879.257 549.551,1010.878 500.747,1217.69C466.529,1362.695 313.158,1374.293 262.976,1321.235C262.5,1320.732 243.517,1307.149 255.381,1325.794C259.58,1332.395 261.063,1331.292 265.106,1337.961C265.654,1338.865 264.568,1340.159 265.117,1341.063L263.21,1342.921ZM243.75,1258.891C244.669,1280.738 240.526,1290.401 270.335,1299.76C348.665,1324.351 371.259,1014.239 282.545,1013.311C264.419,1013.121 240.366,1037.567 240.079,1052.278C238.158,1150.89 242.895,1242.378 243.75,1258.891Z"/>
    </g>
    <g transform="matrix(1.053375,0,0,1.053375,-66.590311,-781.03225)">
        <path d="M627.512,925.313C737.387,919.019 744.189,777.958 651.146,750.79C568.212,726.574 498.774,835.454 567.164,900.621C590.789,923.131 619.345,924.752 627.512,925.313Z"/>
    </g>
    <g transform="matrix(1.053375,0,0,1.053375,-66.590311,-804.75416)">
        <path d="M723.006,1277.438C719.555,1223.477 719.921,1223.496 719.921,1026.041C719.921,953.723 720.717,952.126 717.066,951.195C712.386,950.002 662.324,985.089 549.058,988.708C539.742,989.005 542.681,993.403 547.888,1000.381C552.561,1006.645 565.716,1024.276 566.943,1093.584C569.649,1246.41 568.646,1295.422 548.885,1330.078C548.464,1330.817 536.029,1344.143 549.15,1343.794C593.427,1342.614 729.459,1343.392 733.522,1343.566C742.348,1343.944 747.69,1344.454 743.782,1337.153C737.127,1324.72 730.501,1325.284 723.006,1277.438Z"/>
    </g>
    <g transform="matrix(1.053375,0,0,1.053375,-87.657819,-840.950277)">
        <path d="M2349.512,976.313C2459.387,970.019 2466.189,828.958 2373.146,801.79C2290.212,777.574 2220.774,886.454 2289.164,951.621C2312.789,974.131 2341.345,975.752 2349.512,976.313Z"/>
    </g>
    <g transform="matrix(1.053375,0,0,1.053375,-66.590311,-804.75416)">
        <path d="M1875.586,1206.282C1872.197,1077.582 1891.722,935.631 1750.367,932.62C1740.485,932.409 1682.423,931.173 1641.324,985.842C1622.379,1011.042 1626.745,1020.219 1618.234,1015.662C1615.691,1014.3 1618.043,1005.695 1618.529,996.01C1618.77,991.212 1620.365,959.418 1618.918,935.978C1618.227,924.777 1602.663,939.679 1574.178,947.522C1483.031,972.619 1467.977,966.385 1446.601,968.626C1433.068,970.044 1449.896,975.362 1458.258,1007.495C1471.594,1058.744 1467.82,1265.094 1460.49,1296.618C1451.13,1336.874 1432.084,1344.076 1447.144,1343.803C1559.004,1341.778 1611.398,1344.403 1640.719,1343.079C1649.897,1342.665 1635.204,1329.112 1629.086,1310.875C1613.228,1263.6 1619.351,1057.31 1619.702,1056.199C1632.88,1014.423 1690.686,992.536 1712.515,1041.422C1734.528,1090.72 1720.159,1242.71 1717.815,1292.645C1717.001,1309.999 1696.215,1335.418 1698.455,1341.034C1700.236,1345.498 1702.037,1343.229 1721.677,1343.229C1882.033,1343.226 1881.865,1343.171 1893.78,1343.755C1908.013,1344.454 1888.828,1319.195 1888.828,1319.195C1888.828,1319.195 1873.649,1279.371 1875.586,1206.282Z"/>
    </g>
    <g transform="matrix(1.053375,0,0,1.053375,-66.590311,-804.75416)">
        <path d="M1391.393,1262.469C1387.524,1149.176 1390.532,963.274 1389.894,954.607C1389.259,945.99 1377.321,957.014 1356.092,964.158C1278.96,990.118 1215.382,988.517 1214.031,989.566C1205.733,996.014 1234.051,996.715 1236.107,1082.412C1241.01,1286.786 1231.145,1300.547 1226.001,1315.286C1221.467,1328.278 1205.804,1343.77 1217.562,1343.843C1232.63,1343.938 1362.703,1344.755 1405.92,1343.651C1414.453,1343.433 1417.433,1341.228 1412.477,1334.867C1399.787,1318.582 1395.729,1301.572 1391.393,1262.469Z"/>
    </g>
    <g transform="matrix(1.053375,0,0,1.053375,-66.590311,-804.75416)">
        <path d="M772.468,1338.836C774.964,1340.928 772.6,1342.039 774.999,1344.05C775.222,1344.237 775.268,1344.275 778.774,1344.122C829.222,1341.931 1143.296,1343.856 1172.404,1343.188C1184.188,1342.918 1181.8,1337.331 1181.8,1273.833C1181.8,1227.663 1183.338,1184.287 1183.202,1156.159C1183.09,1133.149 1175.965,1140.049 1173.932,1146.76C1145.342,1241.152 996.163,1325.366 996.163,1325.366C996.163,1325.366 1005.095,1255.536 1031.8,1194.613C1114.915,1005.004 1136.088,979.886 1149.694,963.746C1163.19,947.735 1172.364,947.699 1171.548,940.147C1171.335,938.183 1170.99,938.185 1168.851,938.359C1162.839,938.847 1145.544,938.712 811.437,938.729C792.691,938.729 784.176,933.751 784.162,950.959C784.104,1020.163 782.266,1105.865 782.835,1136.936C783.158,1154.581 790.768,1148.855 791.068,1147.646C813.176,1058.636 919.329,972.071 942.114,958.952C950.889,953.899 962.862,971.769 926.21,1057.945C907.343,1102.306 879.389,1164.006 878.576,1165.584C843.784,1233.132 827.672,1298.108 772.468,1338.836Z"/>
    </g>
    <g transform="matrix(1.053375,0,0,1.053375,-66.590311,-804.75416)">
        <path d="M2134.688,1246.405C2134.688,1246.405 2087.964,1245.536 2065.828,1240.955C1961.992,1219.464 1932.027,1150.792 1926.731,1138.655C1913.69,1108.769 1919.057,1063.696 1925.69,1048.207C1969.192,946.627 2083.48,941.941 2119.85,939.27C2137.473,937.976 2165.564,940.358 2185.882,943.361C2206.2,946.365 2235.186,952.618 2270.32,970.966C2352.457,1013.86 2358.126,1096.72 2341.986,1135.328C2315.605,1198.437 2266.755,1223.448 2201.664,1240.934C2177.802,1247.344 2134.688,1246.405 2134.688,1246.405ZM2088.996,1093.625C2089.166,1102.11 2090.496,1168.647 2102.051,1199.036C2122.237,1252.125 2158.502,1234.32 2169.043,1187.571C2190.901,1090.628 2178.106,933.336 2123.16,957.919C2111.838,962.985 2103.069,983.931 2101.686,988.12C2088.337,1028.534 2089.14,1076.951 2088.996,1093.625Z"/>
    </g>
    <g id="Artboard1" transform="matrix(9.84252,0,0,2.263295,-1781.496063,-377.970195)">
        <rect x="181" y="167" width="252" height="379" style="fill:none;"/>
    </g>
</svg>
