<?xml version="1.0" encoding="UTF-8" standalone="no"?><!DOCTYPE svg PUBLIC "-//W3C//DTD SVG 1.1//EN" "http://www.w3.org/Graphics/SVG/1.1/DTD/svg11.dtd"><svg width="100%" height="100%" viewBox="0 0 254 255" version="1.1" xmlns="http://www.w3.org/2000/svg" xmlns:xlink="http://www.w3.org/1999/xlink" xml:space="preserve" xmlns:serif="http://www.serif.com/" style="fill-rule:evenodd;clip-rule:evenodd;stroke-linejoin:round;stroke-miterlimit:2;"><rect id="Artboard1" x="0" y="0" width="253.92" height="254.4" style="fill:none;"/><path d="M126.944,4.024c68.195,0 123.562,55.366 123.562,123.562c0,68.195 -55.366,123.562 -123.562,123.562c-68.195,0 -123.562,-55.366 -123.562,-123.562c0,-68.195 55.366,-123.562 123.562,-123.562Zm-22.465,161.2l29.12,-37.544c26.59,-34.01 26.278,-34.248 28.677,-37.135c0.397,-0.478 0.398,-1.056 9.205,-0.877c13.647,0.278 16.774,-2.999 20.918,-8.151c5.924,-7.366 6.955,-8.792 4.744,-10.803c-0.791,-0.719 -26.568,-20.592 -28.883,-22.376c-3.878,-2.99 -5.835,-5.529 -8.542,-2.098c-6.387,8.096 -7.057,9.39 -7.526,10.296c-5.479,10.577 3.933,23.671 1.476,27.388c-0.565,0.854 -17.495,22.588 -19.021,24.548c-31.115,39.944 -30.961,41.092 -32.578,40.517c-0.671,-0.238 -13.384,-10.318 -18.447,-14.109c-2.221,-1.663 -2.715,-0.535 -7.336,5.463c-16.441,21.341 -16.704,21.276 -18.809,27.101c-4.34,12.012 0.323,24.497 1.886,27.962c4.819,10.685 6.606,11.374 7.655,11.778c16.459,6.346 33.216,3.419 42.629,-5.666c1.962,-1.894 2.095,-2.023 21.192,-26.692c1.899,-2.454 0.42,-3.216 -1.881,-4.962c-14.933,-11.329 -14.836,-11.708 -15.607,-11.574c-0.975,0.17 -9.494,12.998 -14.776,16.988c-1.347,1.018 -1.953,-0.03 -1.225,-0.967c0.567,-0.73 5.915,-7.616 7.133,-9.087Zm56.586,-107.933c0.135,-0.158 0.898,-1.466 1.817,-1.108c0.169,0.066 11.176,8.425 19.375,14.882c4.19,3.3 5.765,3.803 4.57,5.368c-2.532,3.315 -4.83,4.635 -8.184,5.089c-2.536,0.343 -15.396,0.322 -15.949,-0.101c-0.38,-0.29 -0.403,-0.307 -1.807,-5.704c-2.7,-10.375 -4.224,-12.327 0.178,-18.426Z" style="fill:#181c26;"/></svg>