<?xml version="1.0" encoding="UTF-8" standalone="no"?><!DOCTYPE svg PUBLIC "-//W3C//DTD SVG 1.1//EN" "http://www.w3.org/Graphics/SVG/1.1/DTD/svg11.dtd"><svg width="100%" height="100%" viewBox="0 0 1360 382" version="1.1" xmlns="http://www.w3.org/2000/svg" xmlns:xlink="http://www.w3.org/1999/xlink" xml:space="preserve" xmlns:serif="http://www.serif.com/" style="fill-rule:evenodd;clip-rule:evenodd;stroke-linejoin:round;stroke-miterlimit:2;"><rect id="Artboard1" x="0" y="0" width="1359.829" height="381.811" style="fill:none;"/><path d="M272.83,42.977c31.06,29.07 50.482,70.424 50.482,116.28c0,87.896 -71.36,159.256 -159.256,159.256c-87.896,0 -159.256,-71.36 -159.256,-159.256c0,-87.896 71.36,-159.256 159.256,-159.256c32.844,0 63.379,9.964 88.744,27.031c-69.487,89.287 -69.188,91.868 -72.903,90.548c-1.563,-0.555 -31.187,-24.042 -42.985,-32.876c-5.175,-3.875 -6.327,-1.246 -17.093,12.729c-38.308,49.728 -38.923,49.576 -43.827,63.149c-10.113,27.99 0.752,57.08 4.393,65.153c11.228,24.897 15.393,26.502 17.836,27.444c38.35,14.786 77.398,7.967 99.329,-13.203c4.571,-4.412 4.882,-4.713 49.379,-62.195c4.426,-5.717 0.98,-7.493 -4.383,-11.562c-34.796,-26.397 -34.569,-27.281 -36.366,-26.968c-2.271,0.396 -22.123,30.286 -34.431,39.584c-3.139,2.372 -4.55,-0.069 -2.855,-2.253c1.321,-1.701 13.783,-17.746 16.62,-21.175l67.851,-87.481c7.326,-9.371 13.776,-17.641 19.463,-24.951Z" style="fill:#181c26;"/><g><path d="M1220.137,266.172c-0.005,-1.653 0.08,-1.668 -0.005,-1.783c-0.629,-0.851 -10.691,0.212 -24.432,-11.185c-30.453,-25.257 -20.064,-83.846 -1.599,-109.969c6.836,-9.671 12.502,-16.202 24.031,-24.508c42.228,-30.421 102.302,-21.61 137.202,-7.438c3.558,1.445 0.859,7.086 -0.476,15.468c-1.195,7.5 -3.863,24.236 -15.897,93.594c-10.267,59.17 -13.04,76.766 -25.558,102.678c-1.695,3.508 -9.46,15.274 -12.851,18.892c-12.963,13.836 -20.397,16.597 -24.764,18.794c-19.881,10.001 -49.426,12.536 -71.854,5.857c-22.143,-6.595 -29.943,-24.302 -31.316,-32.586c-8.169,-49.276 44.882,-67.1 47.518,-67.814Zm50.474,8.65c1.219,-5.817 1.563,-7.103 0.712,-7.273c-2.365,-0.474 -2.587,1.324 -5.145,3.192c-8.953,6.539 -9.075,6.359 -9.844,6.939c-17.568,13.259 -27.191,18.74 -29.171,30.124c-4.295,24.693 20.016,19.587 24.911,16.25c13.953,-9.514 16.485,-34.756 18.536,-49.231Zm20.153,-120.696c0.138,-0.753 1.62,-8.86 1.393,-9.461c-1.235,-3.268 -10.875,-3.89 -12.629,-3.832c-18.043,0.603 -25.236,8.981 -30.408,15.838c-10.813,14.335 -19.383,56.1 -8.122,72.756c5.041,7.455 19.394,6.639 25.25,3.412c15.753,-8.68 16.106,-31.055 24.516,-78.712Z" style="fill:#181c26;"/><path d="M440.318,290.777c-46.354,6.501 -93.838,-9.894 -95.377,-13.875c-0.779,-2.016 14.464,-83.511 16.475,-95.59c4.354,-26.144 19.146,-105.067 18.739,-108.935c-0.578,-5.494 -5.389,-6.634 -6.1,-6.803c-4.29,-1.017 -11.699,-0.033 -12.624,-2.698c-0.299,-0.863 0.969,-5.086 4.631,-27.133c0.165,-0.993 0.042,-5.1 3.268,-5.278c7.673,-0.422 69.711,-0.13 75.773,-0.101c4.111,0.019 2.507,2.904 2.139,5.299c-0.336,2.184 -0.546,2.14 -4.834,27.198c-0.071,0.414 -5.669,29.803 -7.288,40.205c-1.252,8.044 -4.452,15.786 -0.856,13.987c0.769,-0.385 -0.379,-1.542 7.57,-7.628c15.044,-11.519 55.73,-20.85 76.365,6.947c16.195,21.816 12.585,58.015 11.183,75.55c-1.162,14.52 -7.749,40.868 -19.496,57.748c-2.653,3.812 -19.367,29.888 -56.392,38.49c-9.126,2.12 -12.109,2.485 -13.176,2.616Zm-26.503,-63.465c-3.5,18.081 -3.751,18.882 -1.681,19.879c0.794,0.383 14.886,5.285 26.856,-0.105c32.047,-14.432 32.683,-82.478 27.194,-94.126c-2.47,-5.241 -6.077,-12.849 -21.022,-11.423c-11.636,1.111 -17.91,11.966 -19.312,18.339c-0.662,3.011 -0.534,3.016 -6.901,37.919c-0.617,3.381 -2.39,14.117 -2.593,15.345c-0.188,1.136 -1.197,7.251 -2.541,14.172Z" style="fill:#181c26;"/><path d="M1125.644,290.796c-64.375,7.733 -58.981,-25.902 -54.365,-51.561c13.02,-72.366 17.465,-83.286 9.134,-90.736c-3.583,-3.204 -20.276,-8.65 -31.003,8.742c-7.533,12.214 -8.92,29.01 -13.812,53.561c-0.755,3.79 -10.935,62.046 -11.878,67.443c-1.324,7.578 -1.27,9.32 -4.517,9.356c-8.128,0.09 -48.985,0.011 -53.244,0.003c-4.567,-0.009 -2.955,-2.601 -1.84,-9.241c0.129,-0.766 9.971,-56.185 10.838,-61.681c1.63,-10.342 13.146,-69.107 12.238,-73.28c-1.552,-7.132 -16.993,-4.437 -17.971,-6.927c-0.536,-1.363 0.003,-1.413 3.796,-23.859c0.744,-4.405 0.887,-9.021 3.614,-9.267c1.399,-0.126 63.116,-0.053 68.605,-0.047c0.276,0 2.86,0.003 3.262,1.14c0.38,1.075 0.346,1.138 -2.166,14.081c-0.079,0.406 -2.669,7.677 0.073,7.06c1.503,-0.338 -0.384,-2.328 12.882,-14.313c14.019,-12.664 56.624,-21.884 78.242,0.174c16.707,17.048 7.914,52.28 6.217,61.573c-12.316,67.473 -12.627,67.395 -13.319,73.316c-0.906,7.753 3.512,7.664 15.365,6.762c3.421,-0.26 4.169,0.5 3.439,3.859c-0.005,0.025 -4.571,27.856 -5.687,29.69c-0.1,0.163 0.212,1.376 -17.901,4.153Z" style="fill:#181c26;"/><path d="M757.507,251.618c6.919,-0.122 10.938,-0.55 12.84,-8.875c2.773,-12.132 2.201,-14.818 6.114,-15.091c3.122,-0.218 37.309,-2.608 39.027,-2.613c2.516,-0.008 1.829,1.108 1.568,3.58c-0.034,0.323 -8.119,47.85 -8.827,52.01c-0.664,3.903 -1.061,4.03 -4.777,5.363c-36.446,13.071 -63.287,3.932 -92.168,-0.047c-35.004,-4.824 -48.145,5.145 -50.774,2.94c-1.446,-1.213 -2.932,-21.719 -4.91,-31.875c-1.635,-8.395 -0.019,-8.797 3.894,-12.849c46.088,-47.716 95.312,-98.579 98.616,-101.312c0.994,-0.823 1.35,-2.626 -0.658,-2.595c-31.577,0.482 -31.548,0.213 -34.286,0.367c-9.388,0.528 -8.252,14.425 -10.337,19.468c-1.195,2.891 -5.838,1.578 -39.304,3.882c-5.946,0.409 -3.335,-2.868 -2.357,-8.745c0.536,-3.224 4.931,-29.64 7.04,-40.243c1.833,-9.213 1.007,-11.53 4.759,-11.675c0.381,-0.015 134.806,-0.006 134.888,-0.005c3.705,0.031 3.437,1.118 4.281,4.71c6.612,28.128 7.435,28.361 6.171,30.506c-1.166,1.979 -102.963,107.737 -103.502,108.218c-3.466,3.093 0.099,3.019 0.753,2.93c11.801,-1.603 19.89,2.355 31.951,1.951Z" style="fill:#181c26;"/><path d="M617.252,239.319c-1.342,7.234 -3.286,13.272 5.352,13.354c13.094,0.124 15.319,-1.644 15.033,1.906c-0.179,2.217 -0.642,2.115 -5.097,27.334c-1.203,6.809 -3.06,5.913 -9.867,7.289c-5.783,1.169 -34.4,5.684 -48.686,-0.011c-2.97,-1.184 -7.193,-2.123 -12.219,-8.139c-12.216,-14.621 -4.132,-37.592 1.05,-71.309c0.454,-2.954 0.859,-2.853 6.705,-36.747c4.521,-26.214 8.091,-33.404 -2.468,-34.765c-8.322,-1.073 -11.572,0.144 -11.094,-4.356c0.384,-3.622 2.482,-11.499 4.793,-26.043c0.903,-5.684 2.98,-4.532 12.158,-4.532c66.68,-0 66.715,-0.031 67.273,0.233c1.713,0.811 0.731,1.541 -4.266,31.627c-0.551,3.316 -3.634,21.879 -7.466,41.343c-0.52,2.642 -0.239,2.673 -6.014,33.116c-0.421,2.217 -3.307,20.591 -5.187,29.698Z" style="fill:#181c26;"/><path d="M857.706,237.97c0.737,-4.75 1.036,-4.652 1.851,-9.371c9.521,-55.127 11.78,-65.912 13.625,-75.854c2.693,-14.508 -2.779,-14.171 -14.896,-15.345c-2.954,-0.286 -3.002,-1.485 -1.901,-6.945c4.473,-22.167 4.455,-25.257 5.348,-26.193c1.051,-1.103 1.329,-0.961 43.876,-0.961c34.173,-0 34.724,-0.185 35.225,1.139c0.682,1.799 -5.863,33.935 -6.634,38.975c-1.315,8.588 -9.424,52.93 -10.056,56.696c-3.787,22.561 -4.287,22.421 -8.111,45.001c-1.194,7.053 2.504,8.601 19.159,7.144c3.423,-0.3 2.423,1.495 1.707,4.849c-2.215,10.376 -4.625,27.913 -5.589,29.242c-2.147,2.958 -44.201,10.51 -62.118,0.924c-17.775,-9.51 -14.711,-31.803 -11.485,-49.301Z" style="fill:#181c26;"/></g></svg>