<?xml version="1.0" encoding="UTF-8" standalone="no"?><!DOCTYPE svg PUBLIC "-//W3C//DTD SVG 1.1//EN" "http://www.w3.org/Graphics/SVG/1.1/DTD/svg11.dtd"><svg width="100%" height="100%" viewBox="0 0 552 552" version="1.1" xmlns="http://www.w3.org/2000/svg" xmlns:xlink="http://www.w3.org/1999/xlink" xml:space="preserve" xmlns:serif="http://www.serif.com/" style="fill-rule:evenodd;clip-rule:evenodd;stroke-linejoin:round;stroke-miterlimit:2;"><rect id="Artboard1" x="0" y="0" width="551.454" height="551.641" style="fill:none;"/><clipPath id="_clip1"><rect x="0" y="0" width="551.454" height="551.641"/></clipPath><g clip-path="url(#_clip1)"><path d="M266.354,477.436c0,0 -101.603,-0 -191.048,-0c0,-131.877 96.038,-155.703 172.938,-239.719c27.72,-30.286 44.642,-70.616 44.642,-114.867c0,-16.431 -2.333,-32.32 -6.685,-47.356c0,0 122.985,0.924 191.048,0.784c-0,100.819 -57.127,148.212 -149.504,217.66c-41.328,31.069 -68.076,80.507 -68.076,136.143c0,16.431 2.333,32.32 6.685,47.356Z"/><circle cx="429.893" cy="430.08" r="121.561"/><circle cx="122.663" cy="122.85" r="121.561"/></g></svg>